Coordinates
version=1
nRows=16
nColumns=42
inDegrees=yes

Units are S.I. units (second, meters, Newtons, ...)
If the header above contains a line with 'inDegrees', this indicates whether rotational values are in degrees (yes) or radians (no).

endheader
time	pelvis_tilt	pelvis_list	pelvis_rotation	pelvis_tx	pelvis_ty	pelvis_tz	hip_flexion_r	hip_adduction_r	hip_rotation_r	knee_angle_r	knee_angle_r_beta	ankle_angle_r	subtalar_angle_r	mtp_angle_r	hip_flexion_l	hip_adduction_l	hip_rotation_l	knee_angle_l	knee_angle_l_beta	ankle_angle_l	subtalar_angle_l	mtp_angle_l	lumbar_extension	lumbar_bending	lumbar_rotation	sh_tx_r	sh_ty_r	sh_tz_r	sh_plane_elev_r	sh_elev_r	sh_axial_rot_r	elbow_flex_r	pro_sup_r	sh_tx_l	sh_ty_l	sh_tz_l	sh_plane_elev_l	sh_elev_l	sh_axial_rot_l	elbow_flex_l	pro_sup_l
      5.10169490	     -5.70219292	     -0.32125591	     -1.42203886	      0.26856916	      0.92444996	     -0.00139121	      4.01253902	     -5.45636001	     -4.51141873	      0.78273942	      0.01366138	      2.68417528	     -1.80740033	     -7.49999987	      3.73011683	     -5.81469564	    -17.17876903	      1.77970541	      0.03106172	      7.48312926	      3.82947460	     -7.49999987	      2.51393017	     -1.02254235	     -7.06749621	      0.01362953	     -0.01871770	     -0.00585130	     14.50320715	      4.30279144	     -1.92975632	     29.26698516	     77.76284232	      0.00485273	     -0.01788351	     -0.00420647	      9.49323850	      6.61427611	     -3.88227350	     27.23365412	     71.44465916
      5.11864410	     -5.62975099	     -0.31619097	     -1.58921785	      0.26812708	      0.92850550	     -0.00092694	      3.95839524	     -5.47444464	     -4.40841718	      0.80386885	      0.01403016	      2.72938981	     -1.88279257	     -7.49999987	      3.58635885	     -5.80868707	    -17.18366007	      1.75082286	      0.03055762	      7.49716730	      3.77801037	     -7.49999987	      2.38018843	     -0.96310753	     -7.02396734	      0.01310992	     -0.01871926	     -0.00581630	     15.29207506	      4.38132114	     -2.62789943	     29.19838161	     77.42495879	      0.00419784	     -0.01789630	     -0.00422470	     10.68803845	      6.60454026	     -4.55048588	     26.79799638	     71.10108254
      5.13559320	     -5.61260536	     -0.31189582	     -1.76485071	      0.26856661	      0.92810281	     -0.00114892	      3.98443979	     -5.48135815	     -4.28628879	      0.83579053	      0.01458730	      2.68951256	     -2.00365288	     -7.49999987	      3.49478638	     -5.81970883	    -17.25706341	      1.74879233	      0.03052218	      7.52113021	      3.68727367	     -7.49999987	      2.44291046	     -0.88618268	     -6.86394086	      0.01322067	     -0.01872194	     -0.00578970	     12.04266488	      4.07349993	     -0.91486729	     29.53372260	     79.61716583	      0.00454340	     -0.01795708	     -0.00418145	      8.71764647	      6.20671562	     -3.12282476	     26.51327837	     72.44143112
      5.15254240	     -5.49716726	     -0.29802686	     -1.89049344	      0.26816940	      0.93194699	     -0.00116962	      3.88616372	     -5.49870545	     -4.40950725	      0.84651260	      0.01477443	      2.70289267	     -1.71627549	     -7.49999987	      3.31856428	     -5.79510752	    -17.23925794	      1.71510165	      0.02993417	      7.42873944	      3.55511610	     -7.49999987	      2.30737371	     -0.81419722	     -7.02594196	      0.01334163	     -0.01871747	     -0.00576090	     12.86441335	      4.09216663	     -1.58034038	     29.25727689	     79.16101982	      0.00354483	     -0.01801085	     -0.00422554	      9.86715719	      6.29841204	     -3.38916045	     25.92602580	     72.19058395
      5.16949150	     -5.42745124	     -0.25697571	     -2.12009745	      0.26844371	      0.93436256	     -0.00114647	      3.84624476	     -5.54414298	     -4.27883552	      0.84717565	      0.01478600	      2.57038455	     -1.91497421	     -7.49999987	      3.14838574	     -5.74095094	    -17.47242014	      1.63261140	      0.02849444	      7.35673590	      3.71760479	     -7.49999987	      2.15080705	     -0.78096009	     -6.71981902	      0.01159227	     -0.01871804	     -0.00573654	     13.98642654	      4.25030819	     -2.52019271	     28.91743730	     77.82429234	      0.00336297	     -0.01799889	     -0.00427692	     11.37312521	      6.34078816	     -3.95580801	     25.59052492	     71.38571228
      5.18644070	     -5.28626107	     -0.23530894	     -2.32603086	      0.26798395	      0.93163311	     -0.00083602	      3.73793115	     -5.58406101	     -4.11792708	      0.85305976	      0.01488870	      2.41015572	     -2.03904580	     -7.49999987	      2.91528390	     -5.69684783	    -17.55453513	      1.57756943	      0.02753378	      7.25836546	      3.49027449	     -7.49999987	      1.91784502	     -0.72115443	     -6.81238357	      0.01169377	     -0.01870975	     -0.00575275	     13.61749418	      4.16537752	     -2.48667202	     28.98845664	     78.10002827	      0.00268411	     -0.01800060	     -0.00427800	     11.52538592	      6.25329055	     -4.31461151	     25.45887750	     71.36871612
      5.20338980	     -5.20444272	     -0.20407882	     -2.48111958	      0.26825116	      0.93093391	     -0.00092197	      3.66868592	     -5.63247858	     -4.04036481	      0.84634875	      0.01477157	      2.38057254	     -1.94193883	     -7.49999987	      2.75277773	     -5.65460291	    -17.62329870	      1.52299452	      0.02658127	      7.21153279	      3.46426844	     -7.49999987	      1.78599861	     -0.68232910	     -7.00793750	      0.01210246	     -0.01871544	     -0.00576860	     13.34196892	      4.07921655	     -2.17743714	     29.04185938	     77.83072178	      0.00204742	     -0.01802524	     -0.00430648	     11.88348329	      6.22206054	     -4.36411482	     25.32280071	     71.00472065
      5.22033900	     -5.20259085	     -0.17552786	     -2.66449248	      0.26792398	      0.92835315	     -0.00064625	      3.72281733	     -5.66826678	     -3.73126080	      0.86535031	      0.01510321	      2.34511523	     -2.17557641	     -7.49999987	      2.71037993	     -5.62951397	    -17.81895161	      1.54678963	      0.02699657	      7.32596319	      3.45040178	     -7.49999987	      1.80207372	     -0.61673929	     -6.93526092	      0.01269166	     -0.01872734	     -0.00579649	     10.76132121	      3.78751096	     -0.91987441	     29.16881188	     79.88556125	      0.00230190	     -0.01806499	     -0.00430693	     10.52354984	      5.98711080	     -3.17251023	     25.20223920	     72.26548634
      5.23728810	     -5.21293956	     -0.17544031	     -2.78925865	      0.26439786	      0.92780814	      0.00384065	      3.81848525	     -5.60226302	     -3.71504633	      0.86763565	      0.01514310	      2.33848910	     -2.15822173	     -7.49999987	      2.68262782	     -5.66069816	    -17.77391264	      1.48967729	      0.02599977	      7.36490939	      3.44538336	     -7.49999987	      1.77660889	     -0.61185782	     -6.94607808	      0.01255066	     -0.01873294	     -0.00585062	     10.75315101	      3.76605677	     -0.93037417	     29.16602608	     79.88933699	      0.00248776	     -0.01806369	     -0.00424233	     10.52430297	      6.00800831	     -3.16603914	     25.20531562	     72.27245416
      5.25423730	     -5.30602674	     -0.17081655	     -2.98512338	      0.26405983	      0.92828039	      0.00430680	      4.05087456	     -5.52580151	     -3.35001139	      0.93529475	      0.01632397	      2.36187677	     -2.21443233	     -7.49999987	      2.72756928	     -5.71467838	    -17.83170059	      1.39918814	      0.02442044	      7.30059851	      3.13888966	     -7.49999987	      1.83749996	     -0.56947977	     -6.98991632	      0.01263483	     -0.01875035	     -0.00585373	     11.20445534	      3.69534115	     -1.59757092	     29.01105435	     78.87953239	      0.00222991	     -0.01809928	     -0.00427460	     11.62285802	      6.24023063	     -3.13842032	     25.07537322	     71.72741996
      5.27118640	     -5.35175880	     -0.13178628	     -3.15211441	      0.26446864	      0.92788115	      0.00424264	      4.19275650	     -5.50128306	     -3.17087103	      0.96487660	      0.01684027	      2.28829244	     -2.30196464	     -7.49999987	      2.70079154	     -5.72598754	    -17.90414210	      1.30875881	      0.02284215	      7.23697968	      3.10163616	     -7.49999987	      1.78380969	     -0.57878805	     -6.94251984	      0.01209494	     -0.01876436	     -0.00586470	     11.15829947	      3.70404076	     -1.67915243	     28.97716705	     77.76154367	      0.00225475	     -0.01811945	     -0.00426371	     12.37346002	      6.37653764	     -3.34106615	     25.26343585	     70.99136313
      5.28813560	     -5.40718119	     -0.11203991	     -3.36038350	      0.26411647	      0.92842947	      0.00463908	      4.35887094	     -5.46126339	     -3.01972373	      0.98546451	      0.01719960	      2.34926404	     -2.17020306	     -7.49999987	      2.71484992	     -5.75432523	    -17.99545369	      1.23055573	      0.02147725	      7.12302939	      2.87263043	     -7.49999987	      1.74876628	     -0.55460600	     -6.80249826	      0.01121361	     -0.01877274	     -0.00590556	     11.86010979	      3.90485181	     -2.74928038	     28.64781356	     77.04979075	      0.00239648	     -0.01813400	     -0.00431206	     14.03203441	      6.60270282	     -3.96389901	     25.25211815	     70.61497497
      5.30508470	     -5.45400799	     -0.07058257	     -3.57448443	      0.26471941	      0.93099014	      0.00441195	      4.49787965	     -5.47962065	     -2.86486924	      1.00342200	      0.01751302	      2.33162399	     -2.10342402	     -7.49999987	      2.70789199	     -5.73817052	    -18.13705371	      1.14606622	      0.02000263	      7.07147796	      2.85344165	     -7.49999987	      1.82420254	     -0.48800121	     -6.81634477	      0.01225415	     -0.01877826	     -0.00588395	      6.96532869	      3.56226313	     -0.67783025	     29.04104082	     81.77702989	      0.00317937	     -0.01816479	     -0.00429969	     12.05693996	      6.31612310	     -3.24172870	     25.51121462	     73.53712536
      5.32203390	     -5.68477987	     -0.03666897	     -3.75012493	      0.26368126	      0.93102874	      0.00495455	      5.14501803	     -5.50470430	     -3.10554531	      1.59737971	      0.02787954	      2.66985443	     -1.53314896	     -7.49999987	      3.18957312	     -5.81237716	    -18.29608991	      1.61964081	      0.02826806	      7.25865796	      2.76776084	     -7.49999987	      1.79653440	     -0.42018315	     -7.23131129	      0.01184549	     -0.01740726	     -0.00561765	      8.57722036	      4.38370783	      0.20456836	     29.39492423	     81.58816437	      0.00079333	     -0.01634497	     -0.00489929	     13.93533264	      6.91005989	     -2.41044122	     25.41015842	     73.48615551
      5.33898310	     -5.50812503	      0.02275638	     -4.02049132	      0.26441822	      0.93069077	      0.00519969	      4.69797703	     -5.52637459	     -2.62155831	      0.98769813	      0.01723858	      2.24329856	     -1.76487516	     -7.49999987	      2.59179808	     -5.64457858	    -18.39780289	      0.88789615	      0.01549671	      6.92890322	      2.69989552	     -7.49999987	      1.85837938	     -0.31830089	     -7.18662117	      0.01211165	     -0.01876141	     -0.00580620	      4.77307310	      3.90736788	     -0.34419304	     29.18257128	     82.08630128	      0.00220179	     -0.01821262	     -0.00440468	     11.89491159	      6.23303849	     -3.22652993	     25.62519727	     73.87623468
      5.35593220	     -5.80854286	      0.07326112	     -4.13755571	      0.26332283	      0.93044883	      0.00559034	      5.40284392	     -5.54895684	     -2.75367751	      1.55037337	      0.02705912	      2.59546826	     -1.24892108	     -7.49999987	      3.17205083	     -5.68170994	    -18.46166799	      1.34474298	      0.02347019	      7.12014653	      2.49756417	     -7.49999987	      1.82414701	     -0.22947247	     -7.35834682	      0.00927458	     -0.01736579	     -0.00552087	      6.08515627	      4.57510435	     -1.27561381	     29.58169687	     80.18578328	      0.00028031	     -0.01647037	     -0.00487210	     14.12097166	      6.78972859	     -3.46966590	     25.73865575	     72.76673908
